<svg width="19" height="19" viewBox="0 0 19 19" fill="none" xmlns="http://www.w3.org/2000/svg">
<path d="M9.5 0C4.2617 0 0 4.2617 0 9.5V13.4358C0 14.4086 0.85215 15.2 1.9 15.2H2.85C3.10196 15.2 3.34359 15.0999 3.52175 14.9218C3.69991 14.7436 3.8 14.502 3.8 14.25V9.36415C3.8 9.1122 3.69991 8.87056 3.52175 8.6924C3.34359 8.51424 3.10196 8.41415 2.85 8.41415H1.9874C2.5156 4.73765 5.6791 1.9 9.5 1.9C13.3209 1.9 16.4844 4.73765 17.0126 8.41415H16.15C15.898 8.41415 15.6564 8.51424 15.4782 8.6924C15.3001 8.87056 15.2 9.1122 15.2 9.36415V15.2C15.2 16.2479 14.3478 17.1 13.3 17.1H11.4V16.15H7.6V19H13.3C15.3957 19 17.1 17.2957 17.1 15.2C18.1479 15.2 19 14.4086 19 13.4358V9.5C19 4.2617 14.7383 0 9.5 0Z" fill="white"/>
</svg>
