<svg width="15" height="10" viewBox="0 0 15 10" fill="none" xmlns="http://www.w3.org/2000/svg">
<path d="M0.394637 8.68404C0.518919 8.80857 0.666543 8.90738 0.829057 8.97479C0.991571 9.0422 1.16579 9.0769 1.34173 9.0769C1.51767 9.0769 1.69188 9.0422 1.8544 8.97479C2.01691 8.90738 2.16454 8.80857 2.28882 8.68404L7.50117 3.47169L12.7135 8.68404C12.9647 8.93522 13.3054 9.07634 13.6606 9.07634C14.0158 9.07634 14.3565 8.93522 14.6077 8.68404C14.8589 8.43285 15 8.09218 15 7.73695C15 7.38172 14.8589 7.04104 14.6077 6.78986L8.44154 0.623697C8.31726 0.499161 8.16964 0.400357 8.00712 0.332944C7.84461 0.265532 7.67039 0.230832 7.49445 0.230832C7.31851 0.230832 7.1443 0.265532 6.98178 0.332944C6.81927 0.400357 6.67165 0.499161 6.54736 0.623697L0.381203 6.78986C-0.129285 7.30035 -0.129285 8.16012 0.394637 8.68404Z" fill="black"/>
</svg>
