<svg width="15" height="9" viewBox="0 0 15 9" fill="none" xmlns="http://www.w3.org/2000/svg">
<path d="M14.6054 0.400923C14.4811 0.276386 14.3335 0.177583 14.1709 0.11017C14.0084 0.0427567 13.8342 0.00805664 13.6583 0.00805664C13.4823 0.00805664 13.3081 0.0427567 13.1456 0.11017C12.9831 0.177583 12.8355 0.276386 12.7112 0.400923L7.49883 5.61328L2.28648 0.400923C2.03529 0.149739 1.69462 0.00862547 1.33939 0.00862547C0.98416 0.00862547 0.643479 0.149739 0.392296 0.400923C0.141111 0.652107 0 0.992786 0 1.34801C0 1.70324 0.141111 2.04392 0.392296 2.2951L6.55846 8.46126C6.68274 8.5858 6.83036 8.6846 6.99288 8.75202C7.15539 8.81943 7.32961 8.85413 7.50555 8.85413C7.68149 8.85413 7.8557 8.81943 8.01822 8.75202C8.18073 8.6846 8.32835 8.5858 8.45264 8.46126L14.6188 2.2951C15.1293 1.78461 15.1293 0.924845 14.6054 0.400923Z" fill="#9A6BFF"/>
</svg>
