<svg width="12" height="7" viewBox="0 0 12 7" fill="none" xmlns="http://www.w3.org/2000/svg">
<path d="M11.0154 0.426671C10.9276 0.338762 10.8234 0.269019 10.7087 0.221433C10.594 0.173847 10.471 0.149353 10.3468 0.149353C10.2226 0.149353 10.0997 0.173847 9.98496 0.221433C9.87024 0.269019 9.76604 0.338762 9.67831 0.426671L5.999 4.10598L2.31969 0.426671C2.14239 0.249364 1.90191 0.149755 1.65116 0.149755C1.40041 0.149755 1.15993 0.249364 0.982625 0.426671C0.805319 0.603977 0.70571 0.844456 0.70571 1.0952C0.70571 1.34595 0.805319 1.58643 0.982625 1.76374L5.33521 6.11632C5.42294 6.20423 5.52714 6.27397 5.64186 6.32156C5.75658 6.36915 5.87955 6.39364 6.00374 6.39364C6.12794 6.39364 6.25091 6.36915 6.36563 6.32156C6.48034 6.27397 6.58455 6.20423 6.67228 6.11632L11.0249 1.76374C11.3852 1.40339 11.3852 0.796498 11.0154 0.426671Z" fill="white"/>
</svg>
