<svg width="12" height="11" viewBox="0 0 12 11" fill="none" xmlns="http://www.w3.org/2000/svg">
<path d="M11.4631 0.245252C11.3278 0.14302 11.1752 0.0705742 11.0139 0.0320533C10.8527 -0.00646756 10.686 -0.010309 10.5234 0.0207488C10.3607 0.0518065 10.2054 0.117155 10.0662 0.213061C9.92694 0.308967 9.80657 0.433551 9.71195 0.579698L4.93136 7.95194L1.79685 5.63991C1.54545 5.45422 1.23604 5.38397 0.936674 5.44462C0.637309 5.50527 0.372519 5.69185 0.200553 5.96332C0.0285874 6.23478 -0.0364673 6.56889 0.0197005 6.89215C0.0758682 7.21541 0.248657 7.50133 0.500056 7.68702L4.7017 10.786C4.8311 10.8813 4.97735 10.9469 5.13128 10.9784C5.28521 11.01 5.44351 11.0069 5.59629 10.9694C5.75925 10.9386 5.91498 10.8734 6.05455 10.7776C6.19413 10.6817 6.31481 10.557 6.40968 10.4107L11.773 2.13721C11.9642 1.84178 12.0389 1.47649 11.9807 1.12161C11.9226 0.766736 11.7363 0.451304 11.4629 0.244633" fill="#F2FF5A"/>
</svg>
