<svg width="22" height="16" viewBox="0 0 22 16" fill="none" xmlns="http://www.w3.org/2000/svg">
<path d="M7.85214 8C7.85214 8.72894 8.14171 9.42802 8.65715 9.94346C9.17258 10.4589 9.87167 10.7485 10.6006 10.7485C11.3295 10.7485 12.0286 10.4589 12.5441 9.94346C13.0595 9.42802 13.3491 8.72894 13.3491 8C13.3491 7.27106 13.0595 6.57198 12.5441 6.05654C12.0286 5.5411 11.3295 5.25153 10.6006 5.25153C9.87167 5.25153 9.17258 5.5411 8.65715 6.05654C8.14171 6.57198 7.85214 7.27106 7.85214 8ZM21.2558 7.36687C18.9294 2.46626 15.4129 0 10.6988 0C5.9822 0 2.46809 2.46626 0.141706 7.36932C0.0483943 7.56691 0 7.78271 0 8.00123C0 8.21974 0.0483943 8.43554 0.141706 8.63313C2.46809 13.5337 5.98465 16 10.6988 16C15.4153 16 18.9294 13.5337 21.2558 8.63068C21.4448 8.23313 21.4448 7.77178 21.2558 7.36687ZM10.6006 12.319C8.21533 12.319 6.28159 10.3853 6.28159 8C6.28159 5.61472 8.21533 3.68098 10.6006 3.68098C12.9859 3.68098 14.9196 5.61472 14.9196 8C14.9196 10.3853 12.9859 12.319 10.6006 12.319Z" fill="white"/>
</svg>
