<svg viewBox="0 0 192 192" fill="none" xmlns="http://www.w3.org/2000/svg">
<g filter="url(#filter0_b_0_88)">
<mask id="path-1-inside-1_0_88" fill="white">
<path d="M191.786 96.0125C191.786 148.935 148.883 191.838 95.9606 191.838C43.0377 191.838 0.135254 148.935 0.135254 96.0125C0.135254 43.0896 43.0377 0.187149 95.9606 0.187149C148.883 0.187149 191.786 43.0896 191.786 96.0125ZM56.0683 96.0125C56.0683 118.044 73.9287 135.905 95.9606 135.905C117.992 135.905 135.853 118.044 135.853 96.0125C135.853 73.9806 117.992 56.1202 95.9606 56.1202C73.9287 56.1202 56.0683 73.9806 56.0683 96.0125Z"/>
</mask>
<path d="M191.786 96.0125C191.786 148.935 148.883 191.838 95.9606 191.838C43.0377 191.838 0.135254 148.935 0.135254 96.0125C0.135254 43.0896 43.0377 0.187149 95.9606 0.187149C148.883 0.187149 191.786 43.0896 191.786 96.0125ZM56.0683 96.0125C56.0683 118.044 73.9287 135.905 95.9606 135.905C117.992 135.905 135.853 118.044 135.853 96.0125C135.853 73.9806 117.992 56.1202 95.9606 56.1202C73.9287 56.1202 56.0683 73.9806 56.0683 96.0125Z" fill="white" fill-opacity="0.3"/>
<path d="M191.786 96.0125C191.786 148.935 148.883 191.838 95.9606 191.838C43.0377 191.838 0.135254 148.935 0.135254 96.0125C0.135254 43.0896 43.0377 0.187149 95.9606 0.187149C148.883 0.187149 191.786 43.0896 191.786 96.0125ZM56.0683 96.0125C56.0683 118.044 73.9287 135.905 95.9606 135.905C117.992 135.905 135.853 118.044 135.853 96.0125C135.853 73.9806 117.992 56.1202 95.9606 56.1202C73.9287 56.1202 56.0683 73.9806 56.0683 96.0125Z" stroke="white" stroke-width="6" mask="url(#path-1-inside-1_0_88)"/>
</g>
<circle cx="95.9605" cy="96.0125" r="45.1485" fill="white"/>
<path d="M107.696 99.3202L89.3753 109.524C87.8205 110.389 85.8252 109.342 85.8252 107.598V87.1898C85.8252 85.4486 87.8176 84.3984 89.3753 85.2662L107.696 95.4702C108.049 95.664 108.343 95.9441 108.548 96.2822C108.752 96.6203 108.86 97.0042 108.86 97.3952C108.86 97.7861 108.752 98.1701 108.548 98.5081C108.343 98.8462 108.049 99.1263 107.696 99.3202V99.3202Z" fill="#9A6BFF"/>
<defs>
<filter id="filter0_b_0_88" x="-3.86475" y="-3.81285" width="199.651" height="199.651" filterUnits="userSpaceOnUse" color-interpolation-filters="sRGB">
<feFlood flood-opacity="0" result="BackgroundImageFix"/>
<feGaussianBlur in="BackgroundImage" stdDeviation="2"/>
<feComposite in2="SourceAlpha" operator="in" result="effect1_backgroundBlur_0_88"/>
<feBlend mode="normal" in="SourceGraphic" in2="effect1_backgroundBlur_0_88" result="shape"/>
</filter>
</defs>
</svg>
