<?xml version="1.0" standalone="no"?>
<!DOCTYPE svg PUBLIC "-//W3C//DTD SVG 20010904//EN"
 "http://www.w3.org/TR/2001/REC-SVG-20010904/DTD/svg10.dtd">
<svg version="1.0" xmlns="http://www.w3.org/2000/svg"
 width="1876.000000pt" height="1876.000000pt" viewBox="0 0 1876.000000 1876.000000"
 preserveAspectRatio="xMidYMid meet">
<metadata>
Created by potrace 1.14, written by Peter Selinger 2001-2017
</metadata>
<g transform="translate(0.000000,1876.000000) scale(0.100000,-0.100000)"
fill="#000000" stroke="none">
<path d="M5429 12616 c-2 -2 -24 -6 -49 -9 -62 -8 -134 -23 -205 -42 -33 -9
-64 -17 -70 -18 -5 -2 -14 -5 -20 -8 -5 -4 -28 -12 -50 -19 -55 -17 -266 -121
-285 -140 -3 -3 -25 -18 -50 -35 -130 -85 -316 -268 -385 -379 -10 -17 -22
-33 -25 -36 -15 -14 -138 -239 -141 -258 0 -4 -7 -22 -15 -41 -8 -19 -17 -46
-21 -60 -3 -14 -10 -32 -16 -38 -5 -7 -7 -13 -3 -13 3 0 1 -12 -5 -27 -12 -32
-13 -36 -35 -153 -18 -93 -27 -362 -14 -431 4 -24 10 -64 14 -89 10 -81 27
-147 68 -260 115 -320 326 -587 608 -769 52 -33 100 -65 107 -71 7 -5 16 -10
21 -10 5 0 29 -10 53 -23 39 -21 128 -57 154 -64 6 -1 29 -9 52 -17 22 -8 52
-17 65 -20 12 -3 55 -12 93 -20 93 -21 197 -30 325 -29 110 1 255 14 255 23 0
1 14 3 30 5 32 4 33 4 105 24 113 32 153 47 275 107 158 77 285 167 406 286
75 75 183 208 236 293 32 51 127 254 138 295 1 3 4 12 8 20 10 26 50 174 53
200 2 14 8 54 13 90 10 69 8 354 -4 430 -4 25 -15 79 -26 120 -10 41 -22 86
-24 99 -11 46 -76 200 -115 271 -22 40 -40 77 -40 81 0 5 -4 9 -9 9 -5 0 -14
14 -21 30 -7 17 -15 30 -19 30 -3 0 -17 18 -31 40 -14 22 -28 40 -32 40 -5 0
-8 5 -8 11 0 13 -196 207 -255 254 -21 17 -61 44 -89 62 -28 18 -56 37 -63 42
-31 27 -250 123 -343 151 -113 34 -123 36 -185 46 -22 4 -51 9 -65 11 -30 6
-356 14 -361 9z"/>
<path d="M324 12498 c-9 -13 -10 -88 -2 -88 4 0 5 -6 3 -12 -9 -24 -11 -118
-2 -118 4 0 4 -8 0 -17 -10 -22 -9 -105 1 -121 4 -7 4 -12 -1 -12 -4 0 -8 -56
-8 -124 0 -71 4 -122 9 -118 5 3 6 0 2 -6 -10 -17 -13 -93 -4 -98 5 -3 5 -10
2 -16 -9 -15 -8 -114 2 -129 4 -7 3 -10 -2 -7 -5 4 -9 -16 -9 -43 0 -27 4 -49
8 -49 5 0 5 -5 1 -11 -9 -15 -11 -209 -1 -209 4 0 4 -8 0 -17 -10 -22 -9 -105
1 -121 4 -7 4 -12 -1 -12 -4 0 -8 -76 -8 -169 0 -93 3 -167 7 -165 4 3 4 -5
-1 -18 -4 -12 -5 -37 -1 -55 5 -18 5 -35 1 -38 -8 -5 -5 -71 4 -85 3 -6 3 -10
-2 -10 -7 0 -9 -77 -3 -105 1 -5 2 -12 1 -15 -6 -18 -5 -150 2 -150 4 0 4 -8
0 -17 -10 -22 -9 -105 1 -121 4 -7 4 -12 -1 -12 -4 0 -8 -56 -8 -124 0 -71 4
-122 9 -118 5 3 6 0 2 -6 -10 -17 -13 -93 -4 -98 5 -3 5 -10 1 -17 -9 -15 -10
-98 -1 -119 5 -9 4 -19 0 -22 -9 -5 -7 -75 2 -83 3 -3 1 -15 -3 -27 -5 -11 -5
-30 -1 -41 8 -20 14 -20 451 -19 244 1 447 2 451 3 3 0 6 488 7 1082 0 595 2
1084 5 1087 7 6 956 6 962 -1 8 -8 10 -167 2 -167 -4 0 -5 -6 -2 -13 7 -20 10
-467 2 -467 -3 0 -4 -8 -2 -17 8 -30 9 -463 2 -463 -4 0 -5 -6 -2 -13 8 -21
10 -147 2 -147 -3 0 -4 -8 -2 -17 8 -29 10 -463 3 -463 -4 0 -3 -16 1 -34 4
-19 6 -37 3 -39 -4 -5 -5 -124 0 -190 1 -21 -1 -41 -5 -44 -5 -2 -6 -9 -3 -14
4 -5 6 -26 7 -47 l0 -38 454 1 454 0 0 1482 c0 816 -3 1484 -7 1484 -35 6
-2776 2 -2779 -3z"/>
<path d="M8551 12500 c-3 -3 -7 -41 -8 -85 -2 -44 -5 -132 -8 -195 -13 -321
-16 -404 -20 -505 -8 -202 -20 -409 -30 -504 -12 -121 -15 -147 -20 -170 -2
-13 -7 -49 -11 -80 -3 -31 -8 -59 -11 -64 -2 -4 -6 -20 -9 -35 -2 -15 -6 -37
-9 -49 -3 -13 -6 -26 -6 -30 -1 -5 -5 -15 -10 -24 -4 -9 -10 -27 -13 -40 -6
-34 -35 -105 -68 -167 -85 -158 -211 -244 -378 -257 -14 -2 -30 -3 -35 -4 -7
-1 -10 -140 -10 -402 l0 -401 120 5 c293 14 521 80 708 204 65 43 237 205 237
223 0 5 6 15 13 22 15 15 77 115 77 124 0 3 9 19 21 35 11 16 18 29 14 29 -3
0 4 19 16 42 50 98 133 391 155 548 2 19 9 55 14 80 5 25 11 65 14 90 4 25 9
65 12 90 3 25 7 68 9 95 2 28 5 50 5 50 1 0 3 25 5 55 3 30 7 82 9 115 3 33 8
131 11 219 8 175 8 183 17 192 5 4 537 9 618 5 14 -1 15 -122 15 -1088 l0
-1088 455 0 455 0 1 1470 c1 809 0 1477 -2 1485 -3 13 -142 15 -1175 15 -644
0 -1174 -2 -1178 -5z"/>
<path d="M12121 12500 c-4 -3 -7 -671 -7 -1485 l1 -1480 414 0 c322 -1 416 2
425 12 21 24 32 39 110 158 44 66 84 123 90 127 6 4 7 8 2 8 -5 0 0 10 11 23
10 12 82 117 159 232 76 116 142 211 147 213 4 2 7 7 7 11 0 6 78 126 190 291
6 8 37 56 70 105 33 50 63 95 67 100 5 6 50 73 101 150 51 77 99 149 108 160
9 11 21 30 27 43 5 12 14 22 19 22 4 0 8 6 8 14 0 7 6 19 14 25 12 10 14 -115
13 -834 0 -465 3 -849 7 -853 4 -4 209 -7 456 -7 l447 0 0 1482 c0 816 -2
1484 -6 1484 -20 4 -814 3 -820 -1 -10 -8 -61 -78 -61 -85 0 -3 -5 -11 -11
-18 -19 -22 -139 -209 -139 -217 0 -5 -3 -10 -7 -12 -7 -3 -61 -79 -73 -103
-9 -17 -83 -130 -89 -135 -8 -6 -25 -35 -50 -81 -11 -19 -27 -41 -35 -48 -9
-8 -16 -17 -16 -21 0 -5 -46 -77 -101 -162 -56 -84 -132 -200 -170 -258 -38
-58 -72 -109 -76 -115 -4 -5 -14 -22 -22 -37 -8 -15 -22 -37 -33 -47 -10 -11
-18 -23 -18 -27 0 -4 -11 -22 -25 -40 -14 -18 -25 -36 -25 -39 0 -3 -11 -21
-25 -39 -14 -18 -25 -38 -25 -44 0 -6 -4 -12 -8 -14 -4 -1 -38 -49 -75 -105
-36 -57 -68 -103 -70 -103 -2 0 -3 392 -2 871 0 570 -3 873 -10 877 -12 8
-883 10 -894 2z"/>
<path d="M15980 12502 c-6 -2 -10 -144 -10 -397 l0 -393 418 0 c229 0 433 -1
452 -1 l35 -1 -1 -1084 c-1 -784 2 -1086 10 -1089 6 -2 211 -3 455 -3 l444 1
0 1088 0 1087 26 0 c14 1 216 1 449 2 232 0 423 3 423 7 1 3 3 178 4 389 1
261 -2 385 -9 390 -11 7 -2676 10 -2696 4z"/>
<path d="M5822 8713 c-4 -1 -90 -4 -192 -7 -118 -3 -210 -10 -255 -21 -38 -9
-78 -18 -88 -20 -39 -9 -146 -50 -217 -83 -185 -88 -382 -256 -500 -427 -91
-131 -171 -314 -199 -455 -6 -30 -13 -68 -17 -85 -8 -41 -12 -335 -5 -335 4 0
6 -12 5 -27 -1 -16 3 -39 8 -51 4 -13 10 -40 12 -60 4 -34 25 -107 45 -157 32
-78 60 -137 83 -178 16 -26 28 -52 28 -57 0 -6 5 -10 10 -10 6 0 10 -5 10 -11
0 -6 15 -30 33 -53 17 -22 39 -50 47 -60 29 -37 155 -162 194 -191 22 -17 51
-40 67 -52 15 -13 29 -23 32 -23 3 0 35 -18 71 -40 36 -22 68 -40 71 -40 2 0
29 -11 60 -25 92 -42 211 -76 330 -93 70 -10 7698 -9 7762 1 29 5 66 12 83 17
16 5 30 7 30 5 0 -2 24 4 53 14 28 10 54 19 57 19 15 2 128 50 185 78 117 59
272 179 361 279 60 69 154 199 154 214 0 5 3 11 8 13 6 2 73 132 77 148 1 3
14 43 29 90 15 47 30 96 32 110 2 14 7 36 10 50 11 43 13 71 17 205 11 363
-113 674 -373 935 -224 227 -519 360 -830 376 -85 5 -7269 12 -7288 7z"/>
</g>
</svg>
