<svg width="469" height="162" viewBox="0 0 469 162" fill="none" xmlns="http://www.w3.org/2000/svg">
<path d="M7.97266 77.1429V2.89288H77.7541V77.1429H55.0147V22.6929H30.712V77.1429H7.97266ZM197.611 78.2743V58.1915C199.884 58.1915 201.874 57.72 203.58 56.7772C205.285 55.8344 206.753 54.2786 207.985 52.11C209.311 49.9414 210.354 46.83 211.112 42.7757C211.869 38.7215 212.391 33.5357 212.675 27.2186L213.67 2.89288H272.651V77.1429H249.911V22.6929H233.851L233.567 29.6229C233.093 39.0514 232.05 46.9244 230.441 53.2415C228.924 59.4643 226.698 64.4143 223.761 68.0915C220.823 71.6744 217.223 74.2671 212.96 75.87C208.696 77.4729 203.58 78.2743 197.611 78.2743ZM302.846 77.1429V2.89288H325.585V47.0186L354.436 2.89288H375.186V77.1429H352.446V34.29L323.738 77.1429H302.846ZM421.818 77.1429V22.6929H399.221V2.89288H467.155V22.6929H444.558V77.1429H421.818Z" fill="black"/>
<path d="M325.659 97.7143H140.829C122.99 97.7143 108.529 112.105 108.529 129.857C108.529 147.609 122.99 162 140.829 162H325.659C343.498 162 357.959 147.609 357.959 129.857C357.959 112.105 343.498 97.7143 325.659 97.7143Z" fill="#9A6BFF"/>
<path d="M162.766 141.429V129.407L158.923 137.861H155.563L151.72 129.407V141.429H145.421V118.607H152.301L157.243 129.343L162.217 118.607H169.065V141.429H162.766ZM187.977 118.607H195.019L202.319 141.429H195.923L194.534 136.961H188.429L187.073 141.429H180.645L187.977 118.607ZM193.533 132.782L191.498 124.746L189.366 132.782H193.533ZM213.914 141.429V118.607H223.798C224.918 118.607 225.952 118.832 226.899 119.282C227.846 119.732 228.665 120.343 229.354 121.114C230.043 121.864 230.571 122.711 230.937 123.654C231.324 124.596 231.518 125.55 231.518 126.514C231.518 127.864 231.195 129.14 230.549 130.339C229.925 131.539 229.041 132.525 227.9 133.296C226.78 134.046 225.468 134.421 223.96 134.421H220.213V141.429H213.914ZM220.213 128.957H223.54C223.798 128.957 224.046 128.883 224.283 128.732C224.519 128.582 224.713 128.325 224.864 127.961C225.036 127.597 225.123 127.114 225.123 126.514C225.123 125.871 225.026 125.379 224.832 125.036C224.66 124.672 224.434 124.425 224.154 124.296C223.895 124.146 223.637 124.071 223.378 124.071H220.213V128.957ZM243.858 141.429V118.607H250.124V126.996H251.416L257.327 118.607H264.24L256.164 129.632L264.982 141.429H257.36L251.158 132.686H250.124V141.429H243.858ZM293.452 135.964V141.429H277.108V118.607H293.161V124.071H283.406V127.286H291.74V132.364H283.406V135.964H293.452ZM323.933 124.071H317.344V141.429H311.045V124.071H304.424V118.607H323.933V124.071Z" fill="white"/>
<path d="M178.298 38.5714C178.298 59.8738 160.945 77.1429 139.537 77.1429C118.131 77.1429 100.777 59.8738 100.777 38.5714C100.777 17.2691 118.131 0 139.537 0C160.945 0 178.298 17.2691 178.298 38.5714Z" fill="black"/>
<path d="M139.537 54C148.1 54 155.041 47.0924 155.041 38.5715C155.041 30.0505 148.1 23.1429 139.537 23.1429C130.974 23.1429 124.033 30.0505 124.033 38.5715C124.033 47.0924 130.974 54 139.537 54Z" fill="#F2FF5A"/>
</svg>
